<svg width="16" height="16" viewBox="0 0 16 16" fill="none" xmlns="http://www.w3.org/2000/svg">
<path d="M2.64649 10.6465L5.58499 7.7085L2.68749 5.39063C2.47211 5.21775 2.43699 4.90338 2.60936 4.68751C2.78224 4.47313 3.09574 4.43701 3.31249 4.60938L7.99999 8.35988L12.6875 4.60938C12.9034 4.43701 13.2177 4.47313 13.3906 4.68751C13.563 4.90338 13.5279 5.21775 13.3125 5.39063L10.4155 7.7085L13.3535 10.6465C13.5489 10.8419 13.5489 11.1583 13.3535 11.3535C13.2559 11.4511 13.1279 11.5 13 11.5C12.8721 11.5 12.7441 11.4511 12.6465 11.3535L9.64649 8.3535C9.64061 8.34763 9.63861 8.33988 9.63336 8.334L8.31249 9.39063C8.22124 9.46338 8.11036 9.5 7.99999 9.5C7.88961 9.5 7.77874 9.46338 7.68749 9.39063L6.36674 8.334C6.36136 8.33988 6.35936 8.34763 6.35361 8.3535L3.35361 11.3535C3.25586 11.4511 3.12786 11.5 2.99999 11.5C2.87211 11.5 2.74411 11.4511 2.64649 11.3535C2.45111 11.1583 2.45111 10.8418 2.64649 10.6465Z" fill="#515151"/>
<path d="M3 2H13C14.6567 2 16 3.34325 16 5V11C16 12.6567 14.6567 14 13 14H3C1.34325 14 0 12.6567 0 11V5C0 3.34325 1.34325 2 3 2ZM1 11C1 12.103 1.897 13 3 13H13C14.103 13 15 12.103 15 11V5C15 3.897 14.103 3 13 3H3C1.897 3 1 3.897 1 5V11Z" fill="#515151"/>
</svg>
