<svg width="17" height="17" viewBox="0 0 17 17" fill="none" xmlns="http://www.w3.org/2000/svg">
<path d="M8.50043 0.849609C11.0771 0.849871 13.1127 3.4478 13.1127 6.57812C13.1127 9.70845 11.0771 12.3064 8.50043 12.3066C5.92353 12.3066 3.88715 9.70861 3.88715 6.57812C3.88715 3.44764 5.92353 0.849609 8.50043 0.849609ZM8.50043 1.89355C7.5315 1.89355 6.64217 2.40596 5.99066 3.25293C5.3391 4.1 4.93109 5.27569 4.93109 6.57812C4.93109 7.88056 5.3391 9.05625 5.99066 9.90332C6.64217 10.7503 7.5315 11.2627 8.50043 11.2627C9.46919 11.2626 10.3578 10.7502 11.0092 9.90332C11.6608 9.05625 12.0688 7.88059 12.0688 6.57812C12.0688 5.27566 11.6608 4.1 11.0092 3.25293C10.3578 2.40609 9.46919 1.89369 8.50043 1.89355Z" fill="#515151" stroke="#515151" stroke-width="0.3"/>
<path d="M11.8105 11.3734C12.5833 11.7271 13.23 12.004 13.7695 12.2416C14.3066 12.4782 14.7408 12.678 15.0791 12.8744C15.4173 13.0709 15.6728 13.2711 15.8418 13.516C16.0134 13.7647 16.0878 14.0462 16.0879 14.3871C16.0879 15.2086 15.3595 16.0247 14.4502 16.0248H2.5498C1.6405 16.0247 0.912109 15.2086 0.912109 14.3871C0.912163 14.0462 0.986648 13.7647 1.1582 13.516C1.32709 13.2713 1.58192 13.0708 1.91992 12.8744C2.2582 12.6779 2.69327 12.4783 3.23047 12.2416C3.76989 12.004 4.41593 11.727 5.18848 11.3734L5.28223 11.3315L5.35547 11.4027C5.54906 11.591 5.75578 11.7605 5.97168 11.9135L6.18262 12.0629L5.94824 12.1723C5.59324 12.3373 5.26011 12.4885 4.94922 12.6273L4.08398 13.0082C3.09435 13.4401 2.55564 13.692 2.26172 13.893C2.11739 13.9917 2.0451 14.0689 2.00684 14.1381C1.96989 14.205 1.95609 14.2786 1.95605 14.3871C1.95605 14.5098 2.01855 14.6614 2.13281 14.7836C2.24572 14.9044 2.39451 14.9808 2.5498 14.9809H14.4502C14.6055 14.9808 14.7543 14.9044 14.8672 14.7836C14.9814 14.6614 15.0439 14.5098 15.0439 14.3871C15.0439 14.2786 15.0301 14.2049 14.9932 14.1381C14.9549 14.0689 14.8826 13.9917 14.7383 13.893C14.5177 13.7422 14.1595 13.5627 13.5762 13.3002L12.915 13.0082C12.3841 12.7763 11.7616 12.5021 11.0518 12.1723L10.8164 12.0629L11.0273 11.9135L11.3438 11.6713C11.4466 11.5862 11.5467 11.4969 11.6436 11.4027L11.7178 11.3315L11.8105 11.3734Z" fill="#515151" stroke="#515151" stroke-width="0.3"/>
</svg>
