<svg width="15" height="16" viewBox="0 0 15 16" fill="none" xmlns="http://www.w3.org/2000/svg">
<path d="M12.4583 7.375H2.54167C1.75926 7.375 1.125 8.00926 1.125 8.79167V13.75C1.125 14.5324 1.75926 15.1667 2.54167 15.1667H12.4583C13.2407 15.1667 13.875 14.5324 13.875 13.75V8.79167C13.875 8.00926 13.2407 7.375 12.4583 7.375Z" stroke="#515151" stroke-width="1.3" stroke-linecap="round" stroke-linejoin="round"/>
<path d="M3.95834 7.375V4.54167C3.95834 3.60236 4.33148 2.70152 4.99567 2.03733C5.65987 1.37314 6.5607 1 7.50001 1C8.43932 1 9.34016 1.37314 10.0043 2.03733C10.6685 2.70152 11.0417 3.60236 11.0417 4.54167V7.375" stroke="#515151" stroke-width="1.3" stroke-linecap="round" stroke-linejoin="round"/>
</svg>
